<svg width="21" height="25" viewBox="0 0 21 25" fill="none" xmlns="http://www.w3.org/2000/svg">
<path d="M19.8123 14.7781H17.7473C17.7473 14.3574 17.7473 13.7456 17.7473 13.6691C17.6708 12.4836 16.7913 11.5276 15.6058 11.3364C14.5351 11.1452 13.7703 10.801 13.6555 10.7628L12.8142 10.1892V8.5448C13.5791 7.43581 13.6938 6.13562 13.6938 5.90618C14.841 3.34404 13.885 1.12606 12.6995 0.628931C10.8257 -0.135888 8.30181 -0.480056 7.19282 1.24079C7.11634 1.31727 5.3955 3.57348 6.77217 6.09738C6.81041 6.55627 7.00161 7.58878 7.61347 8.50656V10.1509C7.11634 10.4186 6.96337 10.9922 4.82188 11.3364C3.63641 11.5276 2.75687 12.4836 2.68039 13.6308C2.68039 13.7073 2.68039 14.3192 2.68039 14.7781H0.61538C0.385935 14.7781 0.232971 14.931 0.232971 15.1605V16.996C0.232971 17.2255 0.385935 17.3785 0.61538 17.3785H1.22724V24.0706C1.22724 24.3001 1.3802 24.453 1.60964 24.453H18.8563C19.0857 24.453 19.2387 24.3001 19.2387 24.0706V17.3785H19.8506C20.08 17.3785 20.233 17.2255 20.233 16.996V15.1605C20.1947 14.9693 20.0418 14.7781 19.8123 14.7781ZM18.4356 23.6882H1.99205V17.3785H18.4739V23.6882H18.4356ZM10.2139 11.5276L8.37829 10.1509V9.34786C8.9519 9.80675 9.86968 10.2274 10.5963 10.0744C11.2081 9.92147 11.667 9.69203 12.0494 9.3861V10.2274L10.2139 11.5276ZM10.4051 9.34786C9.52551 9.53906 7.76643 8.46832 7.53699 6.05914C7.68995 4.41478 7.95764 3.76469 8.07236 3.497C9.33431 3.95589 10.7875 3.80293 12.0877 3.22931C12.3171 3.42052 12.8525 4.07061 12.8907 5.86794C12.8907 5.90618 12.8907 5.90618 12.8907 5.94442C12.8907 6.40331 12.623 8.81249 10.4051 9.34786ZM12.4318 10.8775L12.8907 11.1834L11.514 12.866L10.7875 12.063L12.4318 10.8775ZM7.80467 1.66144C8.72246 0.284762 10.8639 0.667172 12.3936 1.31727C12.8907 1.50847 13.5791 2.54098 13.3878 4.03237C13.0054 2.77042 12.3553 2.46449 12.2406 2.42625C12.1259 2.38801 12.0494 2.38801 11.9347 2.42625C10.4433 3.15283 8.9519 3.07635 8.14884 2.69394C8.07236 2.6557 7.99588 2.6557 7.88116 2.6557C7.61347 2.73218 7.2693 3.11459 7.00161 4.30006C6.92513 2.8469 7.76643 1.73792 7.80467 1.66144ZM7.99588 10.8393L9.64024 12.063L8.91366 12.9043L7.53699 11.1834L7.99588 10.8393ZM3.44521 13.7456C3.52169 12.9425 4.13355 12.2542 4.9366 12.1394C5.81615 11.9865 6.46624 11.757 6.84865 11.6041L8.60773 13.7456C8.7607 13.9368 9.02838 13.9368 9.18135 13.7456L10.2139 12.5983L11.2464 13.7456C11.3993 13.9368 11.667 13.8985 11.82 13.7456L13.5791 11.6041C13.9232 11.757 14.6116 11.9865 15.4911 12.1394C16.3324 12.2924 16.9443 12.9425 16.9825 13.7838C16.9825 13.8603 16.9825 14.3574 16.9825 14.8546H3.44521C3.44521 14.3192 3.44521 13.822 3.44521 13.7456ZM19.4299 16.6136H0.997789V15.5429C4.28651 15.5429 17.3649 15.5429 19.4682 15.5429V16.6136H19.4299Z" fill="#7163BA"/>
</svg>
