<svg width="24" height="28" viewBox="0 0 24 28" fill="none" xmlns="http://www.w3.org/2000/svg">
<rect width="24" height="28" fill="#F5F5F5"/>
<g id="Home " clip-path="url(#clip0_0_1)">
<rect width="1440" height="1024" transform="translate(-1012.77 -408)" fill="white"/>
<path id="Rectangle 13" d="M-1012.77 -408H427.233V614H-1012.77V-408Z" fill="#F2F5FA"/>
<rect id="Rectangle 27" x="-62.767" y="-408" width="490" height="1023" fill="#E5E8FB"/>
<g id="Group 57">
<g id="Group 46">
<g id="Group 45">
<g id="Rectangle 15" filter="url(#filter0_d_0_1)">
<rect x="-32.767" y="-17" width="422" height="220" rx="10" fill="#F5F5F5"/>
</g>
</g>
<g id="Group">
<path id="Vector" d="M23.233 12.9203C23.233 12.676 23.0497 12.4927 22.8053 12.4927H14.5889V0.427623C14.5889 0.183267 14.4056 0 14.1613 0C4.69247 0 0.507872 4.76494 0.324605 4.97875C0.263516 5.07038 0.232971 5.16202 0.232971 5.25365V27.49H23.233V12.9203ZM9.88503 26.6348H4.90628V22.2975H9.88503V26.6348ZM13.7336 26.6348H10.7403V21.8699C10.7403 21.6255 10.557 21.4422 10.3127 21.4422H4.47866C4.2343 21.4422 4.05103 21.6255 4.05103 21.8699V26.6348H1.08822V5.40637C1.39366 5.10093 2.40163 4.12351 4.14267 3.17663C6.03642 2.13811 9.2436 0.916335 13.7336 0.855246V26.6348ZM22.3777 26.6348H14.5889V13.3479H22.3777V26.6348Z" fill="#33A02C"/>
<path id="Vector_2" d="M19.7203 17.3492C19.9647 17.3492 20.148 17.166 20.148 16.9216V15.6998C20.148 15.4555 19.9647 15.2722 19.7203 15.2722C19.476 15.2722 19.2927 15.4555 19.2927 15.6998V16.9216C19.2927 17.166 19.476 17.3492 19.7203 17.3492Z" fill="#33A02C"/>
<path id="Vector_3" d="M17.063 17.3492C17.3073 17.3492 17.4906 17.166 17.4906 16.9216V15.6998C17.4906 15.4555 17.3073 15.2722 17.063 15.2722C16.8186 15.2722 16.6353 15.4555 16.6353 15.6998V16.9216C16.6353 17.166 16.8186 17.3492 17.063 17.3492Z" fill="#33A02C"/>
<path id="Vector_4" d="M19.7203 20.8314C19.9647 20.8314 20.148 20.6481 20.148 20.4037V19.182C20.148 18.9376 19.9647 18.7543 19.7203 18.7543C19.476 18.7543 19.2927 18.9376 19.2927 19.182V20.4037C19.2927 20.6481 19.476 20.8314 19.7203 20.8314Z" fill="#33A02C"/>
<path id="Vector_5" d="M17.063 20.8314C17.3073 20.8314 17.4906 20.6481 17.4906 20.4037V19.182C17.4906 18.9376 17.3073 18.7543 17.063 18.7543C16.8186 18.7543 16.6353 18.9376 16.6353 19.182V20.4037C16.6353 20.6481 16.8186 20.8314 17.063 20.8314Z" fill="#33A02C"/>
<path id="Vector_6" d="M19.7203 24.3134C19.9647 24.3134 20.148 24.1301 20.148 23.8858V22.664C20.148 22.4197 19.9647 22.2364 19.7203 22.2364C19.476 22.2364 19.2927 22.4197 19.2927 22.664V23.8858C19.2927 24.1301 19.476 24.3134 19.7203 24.3134Z" fill="#33A02C"/>
<path id="Vector_7" d="M17.063 24.3134C17.3073 24.3134 17.4906 24.1301 17.4906 23.8858V22.664C17.4906 22.4197 17.3073 22.2364 17.063 22.2364C16.8186 22.2364 16.6353 22.4197 16.6353 22.664V23.8858C16.6353 24.1301 16.8186 24.3134 17.063 24.3134Z" fill="#33A02C"/>
<path id="Vector_8" d="M4.35647 13.3479C4.60083 13.3479 4.78409 13.1647 4.78409 12.9203V11.7902C4.78409 11.5458 4.60083 11.3625 4.35647 11.3625C4.11212 11.3625 3.92885 11.5458 3.92885 11.7902V12.9203C3.92885 13.1647 4.14266 13.3479 4.35647 13.3479Z" fill="#33A02C"/>
<path id="Vector_9" d="M7.25817 13.3479C7.50253 13.3479 7.6858 13.1647 7.6858 12.9203V11.7902C7.6858 11.5458 7.50253 11.3625 7.25817 11.3625C7.01382 11.3625 6.83055 11.5458 6.83055 11.7902V12.9203C6.83055 13.1647 7.01382 13.3479 7.25817 13.3479Z" fill="#33A02C"/>
<path id="Vector_10" d="M4.35647 16.5551C4.60083 16.5551 4.78409 16.3718 4.78409 16.1275V14.9973C4.78409 14.753 4.60083 14.5697 4.35647 14.5697C4.11212 14.5697 3.92885 14.753 3.92885 14.9973V16.1275C3.92885 16.3718 4.14266 16.5551 4.35647 16.5551Z" fill="#33A02C"/>
<path id="Vector_11" d="M7.25817 16.5551C7.50253 16.5551 7.6858 16.3718 7.6858 16.1275V14.9973C7.6858 14.753 7.50253 14.5697 7.25817 14.5697C7.01382 14.5697 6.83055 14.753 6.83055 14.9973V16.1275C6.83055 16.3718 7.01382 16.5551 7.25817 16.5551Z" fill="#33A02C"/>
<path id="Vector_12" d="M10.2516 13.3479C10.496 13.3479 10.6792 13.1647 10.6792 12.9203V11.7902C10.6792 11.5458 10.496 11.3625 10.2516 11.3625C10.0072 11.3625 9.82397 11.5458 9.82397 11.7902V12.9203C9.82397 13.1647 10.0072 13.3479 10.2516 13.3479Z" fill="#33A02C"/>
<path id="Vector_13" d="M10.2516 16.5551C10.496 16.5551 10.6792 16.3718 10.6792 16.1275V14.9973C10.6792 14.753 10.496 14.5697 10.2516 14.5697C10.0072 14.5697 9.82397 14.753 9.82397 14.9973V16.1275C9.82397 16.3718 10.0072 16.5551 10.2516 16.5551Z" fill="#33A02C"/>
<path id="Vector_14" d="M4.35647 19.7622C4.60083 19.7622 4.78409 19.579 4.78409 19.3346V18.2045C4.78409 17.9601 4.60083 17.7769 4.35647 17.7769C4.11212 17.7769 3.92885 17.9601 3.92885 18.2045V19.3346C3.92885 19.5484 4.14266 19.7622 4.35647 19.7622Z" fill="#33A02C"/>
<path id="Vector_15" d="M7.25817 19.7622C7.50253 19.7622 7.6858 19.579 7.6858 19.3346V18.2045C7.6858 17.9601 7.50253 17.7769 7.25817 17.7769C7.01382 17.7769 6.83055 17.9601 6.83055 18.2045V19.3346C6.83055 19.5484 7.01382 19.7622 7.25817 19.7622Z" fill="#33A02C"/>
<path id="Vector_16" d="M10.2516 19.7622C10.496 19.7622 10.6792 19.579 10.6792 19.3346V18.2045C10.6792 17.9601 10.496 17.7769 10.2516 17.7769C10.0072 17.7769 9.82397 17.9601 9.82397 18.2045V19.3346C9.82397 19.5484 10.0072 19.7622 10.2516 19.7622Z" fill="#33A02C"/>
<path id="Vector_17" d="M7.25817 6.93363C7.50253 6.93363 7.6858 6.75037 7.6858 6.50601V5.37586C7.6858 5.13151 7.50253 4.94824 7.25817 4.94824C7.01382 4.94824 6.83055 5.13151 6.83055 5.37586V6.50601C6.83055 6.75037 7.01382 6.93363 7.25817 6.93363Z" fill="#33A02C"/>
<path id="Vector_18" d="M10.2516 6.93363C10.496 6.93363 10.6792 6.75037 10.6792 6.50601V5.37586C10.6792 5.13151 10.496 4.94824 10.2516 4.94824C10.0072 4.94824 9.82397 5.13151 9.82397 5.37586V6.50601C9.82397 6.75037 10.0072 6.93363 10.2516 6.93363Z" fill="#33A02C"/>
<path id="Vector_19" d="M4.35647 10.1407C4.60083 10.1407 4.78409 9.95746 4.78409 9.7131V8.58296C4.78409 8.3386 4.60083 8.15533 4.35647 8.15533C4.11212 8.15533 3.92885 8.3386 3.92885 8.58296V9.7131C3.92885 9.95746 4.14266 10.1407 4.35647 10.1407Z" fill="#33A02C"/>
<path id="Vector_20" d="M7.25817 10.1407C7.50253 10.1407 7.6858 9.95746 7.6858 9.7131V8.58296C7.6858 8.3386 7.50253 8.15533 7.25817 8.15533C7.01382 8.15533 6.83055 8.3386 6.83055 8.58296V9.7131C6.83055 9.95746 7.01382 10.1407 7.25817 10.1407Z" fill="#33A02C"/>
<path id="Vector_21" d="M10.2516 10.1407C10.496 10.1407 10.6792 9.95746 10.6792 9.7131V8.58296C10.6792 8.3386 10.496 8.15533 10.2516 8.15533C10.0072 8.15533 9.82397 8.3386 9.82397 8.58296V9.7131C9.82397 9.95746 10.0072 10.1407 10.2516 10.1407Z" fill="#33A02C"/>
</g>
</g>
</g>
</g>
<defs>
<filter id="filter0_d_0_1" x="-36.767" y="-17" width="430" height="228" filterUnits="userSpaceOnUse" color-interpolation-filters="sRGB">
<feFlood flood-opacity="0" result="BackgroundImageFix"/>
<feColorMatrix in="SourceAlpha" type="matrix" values="0 0 0 0 0 0 0 0 0 0 0 0 0 0 0 0 0 0 127 0" result="hardAlpha"/>
<feOffset dy="4"/>
<feGaussianBlur stdDeviation="2"/>
<feComposite in2="hardAlpha" operator="out"/>
<feColorMatrix type="matrix" values="0 0 0 0 0 0 0 0 0 0 0 0 0 0 0 0 0 0 0.25 0"/>
<feBlend mode="normal" in2="BackgroundImageFix" result="effect1_dropShadow_0_1"/>
<feBlend mode="normal" in="SourceGraphic" in2="effect1_dropShadow_0_1" result="shape"/>
</filter>
<clipPath id="clip0_0_1">
<rect width="1440" height="1024" fill="white" transform="translate(-1012.77 -408)"/>
</clipPath>
</defs>
</svg>
