<svg width="20" height="23" viewBox="0 0 20 23" fill="none" xmlns="http://www.w3.org/2000/svg">
<path d="M18.9856 11.7892C18.6862 11.4898 18.2801 11.3214 17.8564 11.3214C17.433 11.3214 17.0269 11.4898 16.7275 11.7892L11.4693 17.0474L11.4693 1.74082C11.4693 1.17036 11.1651 0.643208 10.6711 0.357977C10.1771 0.0727464 9.56819 0.0727464 9.07417 0.357977C8.58014 0.643208 8.27595 1.17035 8.27595 1.74082L8.27595 17.0474L3.01778 11.7892L3.01751 11.7892C2.6136 11.3901 2.02762 11.2359 1.47933 11.384C0.931059 11.5321 0.502575 11.9606 0.354416 12.5089C0.206319 13.0571 0.360564 13.6431 0.759674 14.0471L8.74383 22.0312C9.04323 22.3309 9.44932 22.499 9.87272 22.499C10.2961 22.499 10.7025 22.3309 11.0019 22.0312L18.986 14.0471L18.9858 14.0471C19.2854 13.7479 19.4536 13.3416 19.4536 12.9182C19.4536 12.4948 19.285 12.0886 18.9856 11.7892Z" fill="#DE1F1F"/>
</svg>
