<svg width="21" height="13" viewBox="0 0 21 13" fill="none" xmlns="http://www.w3.org/2000/svg">
<path d="M3.27988 0C2.22266 0 1.35517 0.860587 1.35517 1.9176C1.35517 2.60564 1.72318 3.21771 2.27136 3.55822C1.0905 3.96897 0.233017 5.0692 0.233017 6.37071C0.232165 6.43094 0.243293 6.49074 0.265754 6.54664C0.288215 6.60253 0.321561 6.6534 0.363854 6.6963C0.406146 6.73919 0.456542 6.77325 0.512113 6.7965C0.567684 6.81975 0.627322 6.83172 0.68756 6.83172C0.747798 6.83172 0.807436 6.81975 0.863007 6.7965C0.918578 6.77325 0.968974 6.73919 1.01127 6.6963C1.05356 6.6534 1.08691 6.60253 1.10937 6.54664C1.13183 6.49074 1.14295 6.43094 1.1421 6.37071C1.1421 5.21923 2.08221 4.28975 3.27988 4.28975C4.47754 4.28975 5.41765 5.21924 5.41765 6.37071C5.4168 6.43094 5.42793 6.49074 5.45039 6.54664C5.47285 6.60253 5.5062 6.6534 5.54849 6.6963C5.59078 6.73919 5.64118 6.77325 5.69675 6.7965C5.75232 6.81975 5.81196 6.83172 5.8722 6.83172C5.93243 6.83172 5.99207 6.81975 6.04764 6.7965C6.10321 6.77325 6.15361 6.73919 6.1959 6.6963C6.2382 6.6534 6.27154 6.60253 6.294 6.54664C6.31646 6.49074 6.32759 6.43094 6.32674 6.37071C6.32674 5.06921 5.46926 3.96897 4.2884 3.55822C4.83658 3.21771 5.20459 2.60564 5.20459 1.9176C5.20459 0.860587 4.3371 0 3.27988 0ZM17.1861 0C16.1288 0 15.2614 0.860587 15.2614 1.9176C15.2614 2.60564 15.6294 3.21771 16.1775 3.55822C14.9967 3.96897 14.1392 5.06921 14.1392 6.37071C14.1384 6.43094 14.1495 6.49074 14.1719 6.54664C14.1944 6.60253 14.2277 6.6534 14.27 6.6963C14.3123 6.73919 14.3627 6.77325 14.4183 6.7965C14.4739 6.81975 14.5335 6.83172 14.5937 6.83172C14.654 6.83172 14.7136 6.81975 14.7692 6.7965C14.8248 6.77325 14.8752 6.73919 14.9175 6.6963C14.9597 6.6534 14.9931 6.60253 15.0156 6.54664C15.038 6.49074 15.0491 6.43094 15.0483 6.37071C15.0483 5.21924 15.9884 4.28975 17.1861 4.28975C18.3837 4.28975 19.3238 5.21923 19.3238 6.37071C19.323 6.43094 19.3341 6.49074 19.3566 6.54664C19.379 6.60253 19.4124 6.6534 19.4547 6.6963C19.497 6.73919 19.5474 6.77325 19.6029 6.7965C19.6585 6.81975 19.7181 6.83172 19.7784 6.83172C19.8386 6.83172 19.8983 6.81975 19.9538 6.7965C20.0094 6.77325 20.0598 6.73919 20.1021 6.6963C20.1444 6.6534 20.1777 6.60253 20.2002 6.54664C20.2227 6.49074 20.2338 6.43094 20.2329 6.37071C20.2329 5.0692 19.3754 3.96897 18.1946 3.55822C18.7428 3.21771 19.1108 2.60564 19.1108 1.9176C19.1108 0.860587 18.2433 0 17.1861 0ZM3.27988 0.909087C3.84609 0.909087 4.2955 1.3522 4.2955 1.9176C4.2955 2.48301 3.84609 2.93323 3.27988 2.93323C2.71366 2.93323 2.26426 2.48301 2.26426 1.9176C2.26426 1.3522 2.71366 0.909087 3.27988 0.909087ZM17.1861 0.909087C17.7523 0.909087 18.2017 1.3522 18.2017 1.9176C18.2017 2.48301 17.7523 2.93323 17.1861 2.93323C16.6198 2.93323 16.1704 2.48301 16.1704 1.9176C16.1704 1.3522 16.6199 0.909087 17.1861 0.909087ZM10.233 1.42755C8.55479 1.42755 7.17901 2.78435 7.17901 4.4531C7.17901 5.61174 7.84539 6.6225 8.81252 7.13065C6.72765 7.72539 5.19748 9.59324 5.19748 11.8181C5.19663 11.8784 5.20776 11.9382 5.23022 11.9941C5.25268 12.0499 5.28603 12.1008 5.32832 12.1437C5.37061 12.1866 5.42101 12.2207 5.47658 12.2439C5.53215 12.2672 5.59179 12.2791 5.65203 12.2791C5.71226 12.2791 5.7719 12.2672 5.82747 12.2439C5.88304 12.2207 5.93344 12.1866 5.97573 12.1437C6.01803 12.1008 6.05137 12.0499 6.07383 11.9941C6.09629 11.9382 6.10742 11.8784 6.10657 11.8181C6.10657 9.61616 7.93062 7.84087 10.233 7.84087C12.5353 7.84087 14.3594 9.61616 14.3594 11.8181C14.3585 11.8784 14.3696 11.9382 14.3921 11.9941C14.4146 12.0499 14.4479 12.1008 14.4902 12.1437C14.5325 12.1866 14.5829 12.2207 14.6385 12.2439C14.694 12.2672 14.7537 12.2791 14.8139 12.2791C14.8742 12.2791 14.9338 12.2672 14.9894 12.2439C15.0449 12.2207 15.0953 12.1866 15.1376 12.1437C15.1799 12.1008 15.2133 12.0499 15.2357 11.9941C15.2582 11.9382 15.2693 11.8784 15.2685 11.8181C15.2685 9.59324 13.7383 7.72539 11.6534 7.13065C12.6206 6.6225 13.2869 5.61174 13.2869 4.4531C13.2869 2.78435 11.9112 1.42755 10.233 1.42755ZM10.233 2.33664C11.4247 2.33664 12.3778 3.28062 12.3778 4.4531C12.3778 5.62563 11.4248 6.56957 10.233 6.56957C9.04119 6.56957 8.08809 5.62563 8.08809 4.4531C8.08809 3.28062 9.0412 2.33664 10.233 2.33664Z" fill="#7163BA"/>
</svg>
