<svg width="35" height="32" viewBox="0 0 35 32" fill="none" xmlns="http://www.w3.org/2000/svg">
<path fill-rule="evenodd" clip-rule="evenodd" d="M34.7014 28.4562C34.0244 27.2756 20.3521 3.68054 19.1824 1.66649C18.4139 0.344277 16.5827 0.366067 15.8135 1.66649C14.9558 3.11632 1.21389 26.8013 0.259008 28.5165C-0.441008 29.7726 0.332162 31.4201 1.92519 31.4201H33.0255C34.4719 31.4201 35.5474 29.9294 34.7014 28.4562ZM17.5014 28.3064C16.4271 28.3064 15.5559 27.4356 15.5559 26.3608C15.5559 25.2861 16.4271 24.4153 17.5014 24.4153C18.5762 24.4153 19.447 25.2861 19.447 26.3608C19.447 27.4356 18.5762 28.3064 17.5014 28.3064ZM18.6688 22.0806C18.6688 22.8588 18.2797 23.2479 17.5014 23.2479C16.7232 23.2479 16.3341 22.8588 16.3341 22.0806L15.1667 10.7963C15.1667 9.62893 15.945 8.46158 17.5014 8.46158C19.0579 8.46158 19.8361 9.62893 19.8361 10.7963L18.6688 22.0806Z" fill="#B3B1D8"/>
</svg>
