<svg width="35" height="34" viewBox="0 0 35 34" fill="none" xmlns="http://www.w3.org/2000/svg">
<path d="M34.303 14.0135L18.7943 0.497333C18.0317 -0.166855 16.8962 -0.16556 16.1362 0.499922L0.69352 14.0167C-0.709948 15.2454 0.159451 17.5571 2.02448 17.5571C3.13988 17.5571 4.04424 18.4615 4.04424 19.5775V31.3788C4.04424 32.4949 4.94924 33.3986 6.06464 33.3986H13.1435V23.0558C13.1435 22.4246 13.6542 21.9138 14.2848 21.9138H20.715C21.3455 21.9138 21.8569 22.4246 21.8569 23.0558V33.3992H28.5797C29.6957 33.3992 30.6001 32.4955 30.6001 31.3795V19.5782C30.6001 18.4621 31.5044 17.5578 32.6198 17.5578H32.9759C34.8429 17.5565 35.711 15.2402 34.303 14.0135Z" fill="#6A5AD9"/>
</svg>
