<svg width="21" height="19" viewBox="0 0 21 19" fill="none" xmlns="http://www.w3.org/2000/svg">
<path d="M18.871 2.68565C18.871 2.68072 18.8739 2.67661 18.8739 2.67168C18.8739 2.65853 18.8673 2.64785 18.8665 2.63511L18.6639 0.374389C18.645 0.162331 18.4671 0 18.2546 0H15.9573C15.73 0 15.5463 0.184112 15.5463 0.410965V7.95874L11.2641 10.8651V8.17656C11.2641 8.0245 11.1803 7.88477 11.0455 7.81326C10.9115 7.74217 10.7483 7.75121 10.6226 7.83628L6.15991 10.8647V8.17656C6.15991 8.0245 6.07566 7.88477 5.94127 7.81326C5.80648 7.74217 5.64415 7.7508 5.51798 7.83628L0.412974 11.3007C0.300369 11.3771 0.232971 11.5045 0.232971 11.6406V17.9115C0.232971 18.1388 0.417083 18.3225 0.643936 18.3225H5.74853H10.8531H15.9573H19.822C19.9371 18.3225 20.0476 18.274 20.1253 18.1889C20.203 18.1038 20.2416 17.99 20.2313 17.8749L18.871 2.68565ZM17.8786 0.82193L18.0072 2.26072H16.3679V0.82193H17.8786ZM1.0549 11.8584L5.33757 8.95205V11.6402V17.5005H3.6074V14.5576C3.6074 14.3303 3.42329 14.1466 3.19644 14.1466C2.96959 14.1466 2.78547 14.3303 2.78547 14.5576V17.5005H1.0549V11.8584ZM10.4422 17.5005H8.71159V14.5576C8.71159 14.3303 8.52747 14.1466 8.30062 14.1466C8.07377 14.1466 7.88966 14.3303 7.88966 14.5576V17.5005H6.15949V11.8584L10.4422 8.95246V17.5005ZM11.2645 11.8584L15.5463 8.95246V17.5005H13.8162V14.5576C13.8162 14.3303 13.6325 14.1466 13.4052 14.1466C13.178 14.1466 12.9943 14.3303 12.9943 14.5576V17.5005H11.2645V11.8584ZM16.3683 17.5005V8.17656V3.08265H18.0816L19.3728 17.5005H16.3683Z" fill="#33A02C"/>
</svg>
