<svg width="26" height="30" viewBox="0 0 26 30" fill="none" xmlns="http://www.w3.org/2000/svg">
<g id="Layer 2">
<path id="Vector" d="M24.0966 0H1.36933C1.06795 0 0.778914 0.105357 0.565805 0.292893C0.352695 0.48043 0.232971 0.734784 0.232971 1V29C0.232971 29.2652 0.352695 29.5196 0.565805 29.7071C0.778914 29.8946 1.06795 30 1.36933 30H1.52047C1.82183 29.9999 2.11082 29.8946 2.32388 29.707L12.808 20.48L23.2932 29.707C23.4521 29.8468 23.6546 29.942 23.875 29.9806C24.0954 30.0192 24.3238 29.9993 24.5314 29.9237C24.7391 29.848 24.9165 29.7199 25.0414 29.5555C25.1663 29.391 25.2329 29.1978 25.233 29V1C25.233 0.734784 25.1132 0.48043 24.9001 0.292893C24.687 0.105357 24.398 0 24.0966 0Z" fill="#33A02C"/>
</g>
</svg>
