<svg width="36" height="35" viewBox="0 0 36 35" fill="none" xmlns="http://www.w3.org/2000/svg">
<path d="M33.6013 26.1416L35.09 22.518C35.488 21.5495 35.0269 20.4398 34.0568 20.0409L33.234 19.7029C32.2639 19.3041 31.5601 18.3033 31.5578 17.4631C31.5546 16.6247 32.2537 15.619 33.2206 15.2156L34.0426 14.8727C35.0096 14.47 35.4675 13.3572 35.0632 12.3903L33.5541 8.77523C33.1506 7.80743 32.0393 7.35117 31.0724 7.75386L30.2503 8.09746C29.2825 8.50178 28.0768 8.29211 27.4826 7.69867C26.8876 7.106 26.6716 5.90181 27.0704 4.93246L27.4084 4.11043C27.8065 3.14029 27.3439 2.03142 26.3737 1.63269L22.7509 0.143221C21.7823 -0.255574 20.6726 0.206999 20.2746 1.17642L19.9358 1.99917C19.537 2.9693 18.5361 3.67386 17.696 3.67626C16.8575 3.67776 15.8526 2.97958 15.4484 2.01256L15.1063 1.19059C14.7028 0.223578 13.5908 -0.233469 12.6231 0.170006L9.00806 1.67917C8.04026 2.08187 7.58322 3.19393 7.98747 4.16172L8.33029 4.98291C8.73461 5.95071 8.52416 7.15567 7.93072 7.75152C7.33883 8.34575 6.13464 8.56244 5.16529 8.16286L4.34254 7.82557C3.37241 7.42678 2.26438 7.89019 1.86558 8.85955L0.376051 12.4824C-0.0226786 13.4518 0.440674 14.5615 1.40925 14.9594L2.23362 15.2983C3.2022 15.6971 3.90675 16.6972 3.90909 17.5373C3.9115 18.3767 3.21241 19.3807 2.24546 19.7849L1.42349 20.1277C0.455693 20.532 -0.000573978 21.6432 0.402901 22.6102L1.91207 26.2244C2.31476 27.193 3.42676 27.6502 4.39455 27.2458L5.21574 26.903C6.18354 26.5003 7.3885 26.7099 7.98429 27.3017C8.57851 27.8945 8.79527 29.0987 8.39569 30.0688L8.0584 30.89C7.66039 31.8601 8.12303 32.9706 9.09238 33.3685L12.7152 34.8572C13.6846 35.2553 14.795 34.7935 15.1929 33.8241L15.5311 33.002C15.9298 32.0318 16.9299 31.3273 17.77 31.3249C18.6094 31.3217 19.6134 32.0208 20.0177 32.9879L20.3604 33.8098C20.7648 34.7775 21.8752 35.2347 22.8437 34.8303L26.4579 33.3212C27.4257 32.9176 27.882 31.8064 27.4785 30.8395L27.1357 30.0175C26.7322 29.0496 26.9426 27.8438 27.5345 27.2497C28.1271 26.6539 29.3314 26.438 30.3007 26.8366L31.1227 27.1748C32.0929 27.5735 33.2026 27.1109 33.6013 26.1416ZM14.9622 24.2423C11.2385 22.7118 9.46049 18.4514 10.9902 14.7293C12.5222 11.0055 16.7811 9.22838 20.5056 10.7581C24.2278 12.2894 26.0057 16.5482 24.4753 20.2719C22.944 23.9948 18.6852 25.7736 14.9622 24.2423Z" fill="black"/>
</svg>
