<svg width="11" height="14" viewBox="0 0 11 14" fill="none" xmlns="http://www.w3.org/2000/svg">
<path id="Vector" d="M0.477309 6.51548C0.633616 6.69762 0.845623 6.80008 1.06681 6.80008C1.28787 6.80008 1.49986 6.69762 1.65617 6.51548L4.40131 3.31659L4.40131 12.6286C4.40131 12.9756 4.56013 13.2963 4.81804 13.4699C5.07594 13.6434 5.39385 13.6434 5.65177 13.4699C5.90969 13.2963 6.06849 12.9756 6.06849 12.6286L6.0685 3.31659L8.81364 6.51548L8.81378 6.51548C9.02465 6.75828 9.33058 6.85212 9.61682 6.76203C9.90306 6.67193 10.1268 6.41124 10.2041 6.07767C10.2814 5.74412 10.2009 5.38765 9.99254 5.14189L5.82423 0.284597C5.66792 0.102291 5.45591 -2.08812e-07 5.23487 -2.18474e-07C5.01382 -2.28136e-07 4.80168 0.102291 4.64537 0.284597L0.47706 5.14189L0.477199 5.14189C0.320753 5.32387 0.232971 5.57108 0.232971 5.82866C0.232971 6.08625 0.321002 6.33334 0.477309 6.51548Z" fill="#33A02C"/>
</svg>
