<svg width="21" height="20" viewBox="0 0 21 20" fill="none" xmlns="http://www.w3.org/2000/svg">
<path d="M12.2527 11.9704C12.7699 11.4532 13.1886 10.7882 13.4842 10.0493C13.6566 9.60591 13.4349 9.1133 12.967 8.94089C12.7453 8.867 12.5236 8.867 12.3019 8.96552C12.1049 9.06404 11.9325 9.23645 11.8586 9.45813C11.6862 9.95074 11.3906 10.3941 11.0212 10.7635C10.3808 11.4039 9.49406 11.7734 8.5581 11.7734C7.64677 11.7734 6.73544 11.4039 6.09504 10.7635L2.99159 7.68473C2.3512 7.04434 1.98174 6.15764 1.98174 5.22168C1.98174 4.31035 2.3512 3.39902 2.99159 2.75862C4.34627 1.40394 6.56302 1.40394 7.9177 2.75862L10.7995 5.6404C10.9719 5.81281 11.2182 5.91133 11.4399 5.8867C11.6615 5.8867 11.8832 5.78818 12.0064 5.6404C12.1788 5.46798 12.2773 5.24631 12.2527 5C12.2527 4.77833 12.1542 4.55665 12.0064 4.4335L9.14923 1.52709C8.16401 0.541872 6.85859 0 5.45465 0C5.45465 0 5.45465 0 5.43002 0C4.05071 0 2.74529 0.541872 1.76007 1.52709C0.774843 2.51232 0.232971 3.81773 0.232971 5.22168C0.232971 6.60099 0.774843 7.9064 1.76007 8.91626L4.83888 11.9704C5.82411 12.9557 7.12952 13.4975 8.53346 13.4975C9.91278 13.4975 11.2428 12.9557 12.2527 11.9704Z" fill="#33A02C"/>
<path d="M18.7059 11.0345L15.6024 7.98028C14.6172 6.99506 13.3118 6.45319 11.9078 6.45319C10.5285 6.45319 9.22311 6.99506 8.21326 7.98028C7.69602 8.49752 7.2773 9.16255 6.98173 9.90146C6.90784 10.1231 6.90784 10.3448 7.00636 10.5665C7.10489 10.7635 7.2773 10.9359 7.49897 11.0098C7.94232 11.1823 8.43494 10.9606 8.60735 10.4926C8.80439 9.99998 9.07533 9.55663 9.44479 9.18718C10.0852 8.54678 10.9719 8.17732 11.9078 8.17732C12.8192 8.17732 13.7305 8.54678 14.3709 9.18718L17.4497 12.266C18.0901 12.9064 18.4596 13.7931 18.4596 14.729C18.4596 15.6404 18.0901 16.5517 17.4497 17.1921C16.8093 17.8571 15.9473 18.2266 15.0359 18.2266H15.0113C14.1 18.2266 13.2133 17.8571 12.5729 17.2167L9.64183 14.335C9.46942 14.1625 9.24774 14.064 9.00144 14.0887C8.77976 14.0887 8.55809 14.1872 8.43493 14.335C8.26252 14.5074 8.164 14.729 8.18863 14.9754C8.18863 15.197 8.28715 15.4187 8.43493 15.5419L11.3167 18.4236C12.3019 19.4089 13.6073 19.9507 15.0113 19.9507C16.3906 19.9507 17.696 19.4089 18.7059 18.4236C19.6911 17.4384 20.233 16.133 20.233 14.729C20.2083 13.3497 19.6911 12.0443 18.7059 11.0345Z" fill="#33A02C"/>
</svg>
