<svg width="19" height="18" viewBox="0 0 19 18" fill="none" xmlns="http://www.w3.org/2000/svg">
<path d="M0.982364 8.36704C1.25876 8.60094 1.63364 8.73251 2.02476 8.73251C2.41566 8.73251 2.79051 8.60094 3.0669 8.36704L7.92105 4.25909L7.92105 16.2173C7.92105 16.663 8.20188 17.0749 8.65793 17.2977C9.11397 17.5205 9.67613 17.5205 10.1322 17.2977C10.5883 17.0749 10.8691 16.663 10.8691 16.2173L10.8691 4.25909L15.7232 8.36704L15.7235 8.36704C16.0963 8.67884 16.6373 8.79934 17.1435 8.68365C17.6496 8.56794 18.0452 8.23317 18.1819 7.80481C18.3187 7.37647 18.1763 6.9187 17.8078 6.6031L10.4371 0.365474C10.1607 0.13136 9.78587 -3.99967e-07 9.395 -4.18475e-07C9.00413 -4.36982e-07 8.629 0.13136 8.3526 0.365473L0.981924 6.6031L0.982172 6.6031C0.705532 6.8368 0.55031 7.15426 0.55031 7.48504C0.55031 7.81582 0.705972 8.13313 0.982364 8.36704Z" fill="#33A02C"/>
</svg>
