<svg width="35" height="36" viewBox="0 0 35 36" fill="none" xmlns="http://www.w3.org/2000/svg">
<path fill-rule="evenodd" clip-rule="evenodd" d="M3.54882 15.0051L10.4103 9.00019C10.315 8.74048 10.2632 8.46011 10.2632 8.16758C10.2632 6.82973 11.3478 5.74511 12.6857 5.74511C13.998 5.74511 15.0664 6.78841 15.1069 8.09101L20.53 9.9896C20.9745 9.46815 21.6357 9.13714 22.3747 9.13714C22.7916 9.13714 23.1838 9.24248 23.5262 9.42804L29.7779 4.08638C29.6891 3.83436 29.6409 3.56372 29.6409 3.28172C29.6409 1.94387 30.7255 0.859253 32.0634 0.859253C33.4012 0.859253 34.4859 1.94387 34.4859 3.28172C34.4859 4.61957 33.4012 5.70419 32.0634 5.70419C31.6465 5.70419 31.2543 5.59885 30.9119 5.41328L24.6602 10.755C24.749 11.007 24.7972 11.2776 24.7972 11.5596C24.7972 12.8975 23.7126 13.9821 22.3747 13.9821C21.0624 13.9821 19.994 12.9388 19.9539 11.6362L14.5308 9.73759C14.0863 10.259 13.4251 10.5901 12.6861 10.5901C12.2793 10.5901 11.896 10.4896 11.5593 10.3125L4.69786 16.317C4.79308 16.5767 4.84494 16.8571 4.84494 17.1496C4.84494 18.4875 3.76032 19.5721 2.42247 19.5721C1.08462 19.5721 0 18.4875 0 17.1496C0 15.8118 1.08462 14.7272 2.42247 14.7272C2.82925 14.7276 3.21254 14.8281 3.54882 15.0051ZM30.2203 10.4875C29.6178 10.4875 29.1264 10.979 29.1264 11.5815V33.9031C29.1264 34.5056 29.6178 34.9971 30.2203 34.9971H33.9061C34.5085 34.9971 35 34.5056 35 33.9031V11.5815C35 10.979 34.5085 10.4875 33.9061 10.4875H30.2203ZM20.5312 19.4072C19.9287 19.4072 19.4377 19.8987 19.4377 20.5011C19.4377 25.0446 19.4377 29.5881 19.4377 34.1316C19.4377 34.7341 19.9292 35.2256 20.5312 35.2256C21.7601 35.2256 22.9885 35.2256 24.217 35.2256C24.8195 35.2256 25.3105 34.7341 25.3105 34.1316C25.3105 29.5881 25.3105 25.0446 25.3105 20.5011C25.3105 19.8987 24.8195 19.4072 24.217 19.4072C22.9885 19.4072 21.7601 19.4072 20.5312 19.4072ZM10.843 16.2052C10.2405 16.2052 9.74903 16.6967 9.74903 17.2991V34.3606C9.74903 34.963 10.2405 35.4545 10.843 35.4545H14.5287C15.1312 35.4545 15.6227 34.963 15.6227 34.3606V17.2991C15.6227 16.6967 15.1312 16.2052 14.5287 16.2052H10.843ZM1.15431 25.62H4.84008C5.44255 25.62 5.93402 26.1114 5.93402 26.7139V34.5891C5.93402 35.1915 5.44255 35.683 4.84008 35.683H1.15431C0.551832 35.683 0.0603692 35.1915 0.0603692 34.5891V26.7135C0.0603692 26.111 0.551832 25.62 1.15431 25.62Z" fill="#B3B1D8"/>
</svg>
